<svg xmlns="http://www.w3.org/2000/svg" width="1240" height="1240"><path d="M0 620.001v620.001l620.25-.251 620.25-.251.251-619.75.251-619.75H0v620.001m.497.499c0 341 .114 480.649.253 310.332s.139-449.317 0-620S.497 279.5.497 620.5M434.87 306.061c-27.163 4.04-50.026 24.673-56.83 51.285-1.742 6.814-1.864 20.681-2.574 291.904-.435 166.192-.375 284.75.144 284.75.49 0 55.678-23.479 122.64-52.177L620 829.646l121.75 52.177C808.712 910.521 863.844 934 864.264 934c.42 0 .635-128.362.479-285.25-.27-271.621-.37-285.537-2.088-291.25-7.498-24.925-25.268-42.693-50.155-50.147-5.67-1.699-16.052-1.806-189-1.964-100.65-.091-185.534.211-188.63.672M445 602.607c0 181.679.252 227.509 1.25 227.12.688-.267 40.061-17.411 87.496-38.097l86.246-37.611 86.254 37.603c47.44 20.682 86.817 37.826 87.504 38.098.998.394 1.25-45.43 1.25-227.113V375H445v227.607" fill="undefined" fill-rule="evenodd"/></svg>